<?xml version="1.0" standalone="no"?>
<!DOCTYPE svg PUBLIC "-//W3C//DTD SVG 20010904//EN"
 "http://www.w3.org/TR/2001/REC-SVG-20010904/DTD/svg10.dtd">
<svg version="1.0" xmlns="http://www.w3.org/2000/svg"
 width="721.000000pt" height="361.000000pt" viewBox="0 0 721.000000 361.000000"
 preserveAspectRatio="xMidYMid meet">
<metadata>
Created by potrace 1.16, written by Peter Selinger 2001-2019
</metadata>
<g transform="translate(0.000000,361.000000) scale(0.100000,-0.100000)"
fill="#000000" stroke="none">
<path d="M3766 2601 c-9 -9 -16 -23 -16 -29 0 -6 36 -38 79 -71 169 -129 195
-206 114 -334 -69 -110 -198 -258 -245 -283 -15 -8 -49 -14 -75 -14 -57 0
-100 23 -225 118 -83 63 -86 67 -71 84 16 18 15 20 -8 44 l-25 25 -32 -45
c-18 -24 -32 -48 -32 -53 1 -16 250 -198 302 -221 42 -18 66 -22 112 -18 91 7
148 52 273 216 109 143 133 193 133 274 0 90 -47 154 -201 274 -63 49 -67 51
-83 33z"/>
<path d="M2760 1675 c0 -63 1 -65 25 -65 23 0 25 4 25 45 0 44 1 45 33 45 48
0 57 -15 57 -92 0 -64 -2 -69 -26 -78 -14 -6 -45 -10 -70 -10 -38 0 -44 -3
-44 -21 0 -21 3 -22 73 -16 61 5 75 10 95 32 41 48 25 200 -23 219 -9 3 -46 6
-81 6 l-64 0 0 -65z"/>
<path d="M3000 1610 l0 -130 90 0 c83 0 90 1 90 20 0 18 -7 20 -65 20 l-65 0
0 40 0 40 50 0 c38 0 50 4 50 15 0 11 -12 15 -50 15 l-50 0 0 35 0 35 60 0
c53 0 60 2 60 20 0 18 -7 20 -85 20 l-85 0 0 -130z"/>
<path d="M3275 1728 c-25 -67 -85 -240 -85 -243 0 -3 11 -5 24 -5 19 0 26 7
31 30 6 28 9 30 55 30 44 0 49 -2 59 -30 7 -20 17 -30 30 -30 12 0 21 3 21 8
0 4 -19 62 -42 130 -38 108 -45 122 -66 122 -12 0 -25 -6 -27 -12z"/>
<path d="M3450 1610 l0 -130 80 0 c73 0 80 2 80 20 0 18 -7 20 -60 20 l-60 0
0 110 c0 103 -1 110 -20 110 -19 0 -20 -7 -20 -130z"/>
</g>
</svg>
